<svg width="218.066" height="71.875" viewBox="0 0 218.066 71.875" xmlns="http://www.w3.org/2000/svg"><g id="svgGroup" stroke-linecap="round" fill-rule="evenodd" font-size="9pt" stroke="#ee97aa" stroke-width="0.4mm" fill="#feced3" style="stroke:#ee97aa;stroke-width:0.4mm;fill:#feced3"><path d="M 34.473 26.27 L 26.27 70.703 L 10.254 63.379 L 16.602 28.906 A 107.854 107.854 0 0 0 10.365 30.682 Q 4.028 32.709 0 35.059 A 1770.713 1770.713 0 0 1 1.056 29.285 Q 2.277 22.663 4.043 13.289 A 8432.021 8432.021 0 0 1 5.762 4.199 A 156.705 156.705 0 0 1 33.789 0.488 A 190.697 190.697 0 0 1 37.817 0.342 A 145.897 145.897 0 0 1 41.504 0.293 A 108.328 108.328 0 0 1 45.747 0.37 Q 49.587 0.521 52.215 0.968 A 23.435 23.435 0 0 1 53.711 1.27 L 50.977 25.195 A 822.133 822.133 0 0 1 47.894 25.409 Q 44.357 25.648 39.34 25.965 A 3931.258 3931.258 0 0 1 34.473 26.27 Z" id="0" vector-effect="non-scaling-stroke"/><path d="M 101.367 4.395 L 109.863 32.227 A 18.872 18.872 0 0 1 109.741 32.88 Q 109.59 33.622 109.335 34.651 A 84.404 84.404 0 0 1 109.082 35.645 A 50.769 50.769 0 0 1 95.445 59.438 A 60.071 60.071 0 0 1 95.117 59.766 A 45.489 45.489 0 0 1 86.608 66.502 A 31.129 31.129 0 0 1 70.313 71.191 A 22.022 22.022 0 0 1 62.305 69.775 A 20.095 20.095 0 0 1 55.664 65.527 L 48.535 41.504 Q 48.73 39.551 49.512 35.645 A 51.319 51.319 0 0 1 63.477 11.523 A 44.725 44.725 0 0 1 71.941 4.787 A 31.143 31.143 0 0 1 88.281 0.098 A 22.102 22.102 0 0 1 96.073 1.438 A 20.175 20.175 0 0 1 101.367 4.395 Z M 83.301 33.398 A 7.591 7.591 0 0 0 80.495 33.972 Q 79.38 34.414 78.213 35.197 A 18.851 18.851 0 0 0 76.367 36.621 A 25.298 25.298 0 0 0 71.387 42.48 A 21.242 21.242 0 0 0 69.989 45.213 Q 68.813 48.031 68.945 50.488 A 6.849 6.849 0 0 0 69.18 52.201 Q 69.803 54.398 72.066 54.795 A 6.246 6.246 0 0 0 73.145 54.883 Q 75.44 54.883 78.051 53.197 A 19.068 19.068 0 0 0 79.98 51.758 A 25.965 25.965 0 0 0 85.059 45.801 Q 87.513 41.8 87.513 38.392 A 9.292 9.292 0 0 0 87.5 37.891 Q 87.33 33.97 84.258 33.471 A 5.974 5.974 0 0 0 83.301 33.398 Z" id="1" vector-effect="non-scaling-stroke"/><path d="M 107.324 63.77 L 118.652 0.391 L 146.094 27.637 L 150.879 0.293 L 166.895 7.52 L 155.371 70.801 L 127.246 47.656 L 123.242 70.996 L 107.324 63.77 Z" id="2" vector-effect="non-scaling-stroke"/><path d="M 196.094 15.43 L 206.348 0.781 L 218.066 13.965 L 203.125 35.254 L 214.648 67.578 L 192.285 70.313 L 187.793 57.129 L 177.441 71.875 L 165.918 58.594 L 180.957 37.109 L 169.043 2.246 L 190.625 0 L 196.094 15.43 Z" id="3" vector-effect="non-scaling-stroke"/></g></svg>